<?xml version="1.0" encoding="UTF-8" standalone="no"?>
<svg xmlns:dc="http://purl.org/dc/elements/1.1/" xmlns:cc="http://creativecommons.org/ns#" xmlns:rdf="http://www.w3.org/1999/02/22-rdf-syntax-ns#" xmlns:svg="http://www.w3.org/2000/svg" xmlns="http://www.w3.org/2000/svg" xmlns:sodipodi="http://sodipodi.sourceforge.net/DTD/sodipodi-0.dtd" xmlns:inkscape="http://www.inkscape.org/namespaces/inkscape" width="12353" height="2500" viewBox="0 0 1344 272" preserveAspectRatio="xMidYMid" id="svg4188" version="1.1" inkscape:version="0.91 r13725" sodipodi:docname="logotext.svg">
    <metadata id="metadata4200">
        <rdf:RDF>
            <cc:Work rdf:about="">
                <dc:format>image/svg+xml</dc:format>
                <dc:type rdf:resource="http://purl.org/dc/dcmitype/StillImage" />
                <dc:title></dc:title>
            </cc:Work>
        </rdf:RDF>
    </metadata>
    <defs id="defs4198" />
    <sodipodi:namedview pagecolor="#ffffff" bordercolor="#666666" borderopacity="1" objecttolerance="10" gridtolerance="10" guidetolerance="10" inkscape:pageopacity="0" inkscape:pageshadow="2" inkscape:window-width="1446" inkscape:window-height="1049" id="namedview4196" showgrid="false" inkscape:zoom="0.04" inkscape:cx="5274.3" inkscape:cy="2320.7" inkscape:window-x="3656" inkscape:window-y="275" inkscape:window-maximized="0" inkscape:current-layer="svg4188" />
    <path d="M 0.1,45.522 125.91,0.697 255.1,44.725 253.8,55.128 252.49,65.531 251.18,75.934 222.69,89.195 246.19,106.94 247.26,107.14 245.95,117.55 244.64,127.95 243.34,138.35 242.03,148.76 242.08,149.64 219.23,163.17 238.11,179.97 236.8,190.37 235.49,200.77 234.18,211.18 125.91,271.14 19.325,211.97 18.123,201.57 16.922,191.16 15.72,180.76 35.168,165.53 12.297,149.42 12.116,149.55 10.914,139.15 9.7125,128.75 8.5109,118.34 7.3094,107.94 7.1278,108.08 28.551,90.807 3.7047,76.731 2.5031,66.328 1.3016,55.925 Z" id="path4190" style="fill:#f1dd3f;fill-opacity:1" inkscape:connector-curvature="0" sodipodi:nodetypes="ccccccccccccccccccccccccccccccccccccc" />
    <path d="M 255.1,44.725 125.91,0.697 125.91,271.14 234.19,211.28 235.49,200.87 236.8,190.46 238.11,180.05 220.19,163.93 241.4,150.05 241.69,149.5 243.34,138.41 244.64,128 245.95,117.59 247.26,107.18 247.21,107.31 221.47,88.88 251.18,75.953 252.49,65.544 253.8,55.134 Z" id="path4192" style="fill:#f9ed8b;fill-opacity:1" inkscape:connector-curvature="0" sodipodi:nodetypes="cccccccccccccccccccc" />
    <path style="fill:#000000;fill-opacity:0.14465;fill-rule:evenodd;stroke:none;stroke-width:0.1088px;stroke-linecap:butt;stroke-linejoin:miter;stroke-opacity:1" d="M 217.11,165.98 125.84,192.61 125.82,179.16 240.89,149.81 Z" id="path4957" inkscape:connector-curvature="0" sodipodi:nodetypes="ccccc" />
    <path style="fill:#ffffff;fill-opacity:0.25157;fill-rule:evenodd;stroke:none;stroke-width:0.1088px;stroke-linecap:butt;stroke-linejoin:miter;stroke-opacity:1" d="M 237.71,180.37 125.33,216.39 125.77,192.47 220.22,163.91 Z" id="path4959" inkscape:connector-curvature="0" sodipodi:nodetypes="ccccc" />
    <path style="fill:#ffffff;fill-opacity:0.25157;fill-rule:evenodd;stroke:none;stroke-width:0.1088px;stroke-linecap:butt;stroke-linejoin:miter;stroke-opacity:1" d="M 247.91,108.82 125.4,89.619 125.85,68.569 223.81,89.564 Z" id="path4959-6" inkscape:connector-curvature="0" sodipodi:nodetypes="ccccc" />
    <path style="fill:#000000;fill-opacity:0.14465;fill-rule:evenodd;stroke:none;stroke-width:0.1088px;stroke-linecap:butt;stroke-linejoin:miter;stroke-opacity:1" d="M 222.93,89.344 125.83,68.52 125.81,48.213 250.44,75.758 Z" id="path4957-0" inkscape:connector-curvature="0" sodipodi:nodetypes="ccccc" />
    <path style="fill:#ffffff;fill-opacity:0.25157;fill-rule:evenodd;stroke:none;stroke-width:0.1088px;stroke-linecap:butt;stroke-linejoin:miter;stroke-opacity:1" d="M 125.56,216.28 16.338,180.07 35.39,165.58 125.6,192.58 Z" id="path4959-62" inkscape:connector-curvature="0" sodipodi:nodetypes="ccccc" />
    <path style="fill:#000000;fill-opacity:0.14465;fill-rule:evenodd;stroke:none;stroke-width:0.1088px;stroke-linecap:butt;stroke-linejoin:miter;stroke-opacity:1" d="M 125.59,192.36 34.639,165.22 12.686,149.71 125.94,179.38 Z" id="path4957-6" inkscape:connector-curvature="0" sodipodi:nodetypes="ccccc" />
    <path style="fill:#ffffff;fill-opacity:0.25157;fill-rule:evenodd;stroke:none;stroke-width:0.1088px;stroke-linecap:butt;stroke-linejoin:miter;stroke-opacity:1" d="M 125.9,89.667 8.1087,107.45 29.953,89.02 125.88,68.552 Z" id="path4959-6-1" inkscape:connector-curvature="0" sodipodi:nodetypes="ccccc" />
    <path style="fill:#000000;fill-opacity:0.14465;fill-rule:evenodd;stroke:none;stroke-width:0.1088px;stroke-linecap:butt;stroke-linejoin:miter;stroke-opacity:1" d="M 125.81,68.558 27.729,89.622 3.8256,76.871 125.48,48.607 Z" id="path4957-0-8" inkscape:connector-curvature="0" sodipodi:nodetypes="ccccc" />
    <flowRoot xml:space="preserve" id="flowRoot5051" style="font-style:normal;font-weight:normal;font-size:40px;line-height:125%;font-family:sans-serif;letter-spacing:0px;word-spacing:0px;fill:#000000;fill-opacity:1;stroke:none;stroke-width:1px;stroke-linecap:butt;stroke-linejoin:miter;stroke-opacity:1"><flowRegion id="flowRegion5053"><rect id="rect5055" width="2359.5" height="1483.1" x="217.23" y="627.37" /></flowRegion><flowPara id="flowPara5057"></flowPara></flowRoot>    <flowRoot xml:space="preserve" id="flowRoot5061" style="font-style:normal;font-weight:normal;font-size:40px;line-height:125%;font-family:sans-serif;letter-spacing:0px;word-spacing:0px;fill:#000000;fill-opacity:1;stroke:none;stroke-width:1px;stroke-linecap:butt;stroke-linejoin:miter;stroke-opacity:1"><flowRegion id="flowRegion5063"><rect id="rect5065" width="2269.6" height="1857.7" x="277.15" y="380.18" /></flowRegion><flowPara id="flowPara5067"></flowPara></flowRoot>    <flowRoot xml:space="preserve" id="flowRoot5069" style="font-style:normal;font-variant:normal;font-weight:normal;font-stretch:normal;font-size:40px;line-height:125%;font-family:Ubuntu;-inkscape-font-specification:Ubuntu;letter-spacing:0px;word-spacing:0px;fill:#000000;fill-opacity:1;stroke:none;stroke-width:1px;stroke-linecap:butt;stroke-linejoin:miter;stroke-opacity:1"><flowRegion id="flowRegion5071"><rect id="rect5073" width="2000" height="1820.2" x="329.58" y="462.57" style="font-style:normal;font-variant:normal;font-weight:normal;font-stretch:normal;font-family:Ubuntu;-inkscape-font-specification:Ubuntu" /></flowRegion><flowPara id="flowPara5075"></flowPara></flowRoot>    <flowRoot xml:space="preserve" id="flowRoot5077" style="font-style:normal;font-weight:normal;font-size:40px;line-height:125%;font-family:sans-serif;letter-spacing:0px;word-spacing:0px;fill:#000000;fill-opacity:1;stroke:none;stroke-width:1px;stroke-linecap:butt;stroke-linejoin:miter;stroke-opacity:1"><flowRegion id="flowRegion5079"><rect id="rect5081" width="1910.1" height="1775.3" x="307.11" y="387.67" /></flowRegion><flowPara id="flowPara5083"></flowPara></flowRoot>    <text xml:space="preserve" style="font-style:normal;font-variant:normal;font-weight:normal;font-stretch:normal;font-size:4.352px;line-height:125%;font-family:Ubuntu;-inkscape-font-specification:Ubuntu;letter-spacing:0px;word-spacing:0px;fill:#000000;fill-opacity:1;stroke:none;stroke-width:1px;stroke-linecap:butt;stroke-linejoin:miter;stroke-opacity:1" x="14.666305" y="244.28865" id="text5085" sodipodi:linespacing="125%"><tspan sodipodi:role="line" id="tspan5087" x="14.666305" y="244.28865" /></text>
    <flowRoot xml:space="preserve" id="flowRoot5129" style="font-style:normal;font-weight:normal;font-size:40px;line-height:125%;font-family:sans-serif;letter-spacing:0px;word-spacing:0px;fill:#000000;fill-opacity:1;stroke:none;stroke-width:1px;stroke-linecap:butt;stroke-linejoin:miter;stroke-opacity:1"><flowRegion id="flowRegion5131"><rect id="rect5133" width="0" height="90.042" x="646.19" y="1205" /></flowRegion><flowPara id="flowPara5135"></flowPara></flowRoot>    <path style="fill:#645f5f;fill-opacity:1" d="M 303.61,217.59 C 289.09,214.42 274.09,202.47 267.99,189.17 253.23,156.72 270.19,119.51 303.86,110.73 316.91,107.31 330.21,108.65 341.43,114.51 345.46,116.58 345.7,117.07 345.7,123.9 L 345.7,131.1 335.7,126.34 C 326.42,121.95 325.08,121.71 316.18,122.19 304.1,123.05 295.8,126.59 288.12,134.52 276.41,146.47 273.48,165.99 280.68,182.7 290.31,204.78 319.35,212.47 340.58,198.32 L 345.7,194.9 345.7,202.71 C 345.7,207.47 345.09,211.13 344.11,211.86 337.89,216.74 314.84,219.91 303.61,217.59 Z M 850.75,216.98 C 833.67,212.84 820.99,202.83 813.3,187.34 808.66,177.95 808.42,176.48 808.42,165.26 808.42,146.72 814.03,132.69 825.5,122.19 832.82,115.36 839.77,111.82 851.12,109.14 876.98,103.16 902.72,115.61 914.68,140.25 918.21,147.2 918.46,149.03 918.46,163.06 918.46,177.09 918.21,178.92 914.68,186 902.72,210.52 876.37,223.2 850.75,216.98 Z M 881.49,200.88 C 889.18,197.1 896.26,190.02 900.77,181.36 903.33,176.6 903.82,173.68 903.82,163.06 903.82,152.45 903.33,149.52 900.77,144.76 896.13,135.98 889.06,129.03 880.88,125 871.13,120.24 856.85,119.88 847.21,124.27 838.43,128.17 829.53,136.96 825.38,145.62 820.62,155.5 820.25,169.89 824.52,179.17 834.53,201.61 860.15,211.25 881.49,200.88 Z M 363.27,162.82 363.63,109.39 391.2,109.02 418.77,108.65 418.77,115.97 418.77,123.29 398.16,123.29 377.54,123.29 377.54,137.2 377.54,151.11 398.16,151.11 418.77,151.11 418.77,157.08 418.77,163.06 398.16,163.06 377.54,163.06 377.54,182.34 377.54,201.61 398.16,201.61 418.77,201.61 418.77,208.93 418.77,216.25 390.84,216.25 363.02,216.25 363.27,162.82 Z M 434.63,162.21 434.63,108.29 454.88,109.02 C 478.18,109.87 486.85,112.07 497.7,120.36 504.78,125.61 511.98,136.35 514.66,145.13 515.51,148.06 516.25,155.86 516.12,162.45 516.12,177.95 512.71,186.85 503.07,197.34 490.14,211.37 476.6,216.13 450.25,216.13 L 434.63,216.25 434.63,162.21 Z M 477.57,200.27 C 486.85,196.73 494.9,189.66 499.41,181.24 504.29,171.97 504.53,155.38 499.78,144.89 493.56,130.61 480.99,123.29 461.59,122.19 L 449.27,121.58 449.27,162.21 449.27,202.95 459.89,202.95 C 467.2,202.95 472.57,202.1 477.57,200.27 Z M 531.62,162.21 531.62,108.29 551.75,109.02 C 575.17,109.87 583.71,112.07 594.57,120.36 601.64,125.61 608.84,136.35 611.52,145.13 612.38,148.06 613.11,155.86 613.11,162.45 612.99,177.95 609.57,186.85 599.93,197.34 587,211.37 573.46,216.13 547.11,216.13 L 531.62,216.25 531.62,162.21 Z M 574.44,200.27 C 583.71,196.73 591.88,189.66 596.27,181.24 601.15,171.97 601.4,155.38 596.76,144.89 590.42,130.61 577.97,123.29 558.46,122.19 L 546.13,121.58 546.13,162.21 546.13,202.95 556.75,202.95 C 564.07,202.95 569.44,202.1 574.44,200.27 Z M 625.8,163.06 625.8,109.99 633.12,109.99 640.44,109.99 640.44,155.74 640.44,201.61 656.29,201.61 672.28,201.61 672.28,208.93 672.28,216.25 648.98,216.25 625.8,216.25 625.8,163.06 Z M 737.3,162.94 737.3,109.75 757.55,110.24 C 776.58,110.6 778.17,110.85 783.78,114.14 791.22,118.53 795.49,125.85 796.59,136.22 798.05,150.74 791.46,162.7 779.14,167.82 776.21,169.04 769.26,170.38 763.53,170.75 L 753.28,171.48 753.28,193.8 753.28,216.25 745.23,216.25 737.3,216.25 737.3,162.94 Z M 770.72,157.69 C 780.97,154.89 785.85,143.79 781.7,133.05 778.53,124.76 773.65,121.95 762.19,121.95 L 753.28,121.95 753.28,140.49 753.28,159.16 759.5,159.16 C 763.04,159.16 768.04,158.43 770.72,157.69 Z M 935.05,163.06 935.05,109.99 942.37,109.99 949.68,109.99 949.68,155.74 949.68,201.61 965.58,201.61 981.48,201.61 981.48,208.93 981.48,216.25 958.18,216.25 935.05,216.25 935.05,163.06 Z M 1028,192.46 1028,168.67 1010.8,139.03 993.58,109.39 1000.3,108.9 C 1004.1,108.65 1007.8,108.78 1008.6,109.14 1009.6,109.51 1015.8,119.63 1022.7,131.83 1033.4,151.11 1035.2,153.55 1036.6,151.47 1037.4,150.25 1043.2,140.25 1049.3,129.51 1055.4,118.66 1061,109.51 1061.8,109.14 1062.8,108.78 1066.5,108.65 1070.1,108.9 L 1076.8,109.39 1059.7,138.91 1042.5,168.43 1042.5,192.34 1042.5,216.25 1035.3,216.25 1028,216.25 1028,192.46 Z M 1093.3,162.82 1093.7,109.39 1119.9,109.02 1146.1,108.65 1146.1,115.97 1146.1,123.29 1126.8,123.29 1107.6,123.29 1107.9,136.83 1108.3,150.5 1127.2,150.86 1146.1,151.23 1146.1,157.21 1146.1,163.06 1126.8,163.06 1107.6,163.06 1107.6,189.66 1107.6,216.25 1100.4,216.25 1093.1,216.25 1093.3,162.82 Z M 1163.3,163.06 1163.3,109.99 1170,109.99 1176.6,109.99 1176.6,163.06 1176.6,216.25 1170,216.25 1163.3,216.25 1163.3,163.06 Z M 1196.5,163.06 1196.5,109.99 1203.8,109.99 1211.1,109.99 1211.1,155.74 1211.1,201.61 1227.1,201.61 1243,201.61 1243,208.93 1243,216.25 1219.8,216.25 1196.5,216.25 1196.5,163.06 Z M 1257.6,163.06 1257.6,109.99 1264.9,109.99 1272.3,109.99 1272.3,155.74 1272.3,201.61 1288.1,201.61 1304.1,201.61 1304.1,208.93 1304.1,216.25 1280.8,216.25 1257.6,216.25 1257.6,163.06 Z M 686.92,172.33 686.92,165.75 704.12,165.75 721.32,165.75 721.32,172.33 721.32,179.04 704.12,179.04 686.92,179.04 686.92,172.33 Z" id="path5235" inkscape:connector-curvature="0" />
</svg>
