<?xml version="1.0" encoding="UTF-8" standalone="no"?>
<svg xmlns:dc="http://purl.org/dc/elements/1.1/" xmlns:cc="http://creativecommons.org/ns#" xmlns:rdf="http://www.w3.org/1999/02/22-rdf-syntax-ns#" xmlns:svg="http://www.w3.org/2000/svg" xmlns="http://www.w3.org/2000/svg" version="1.1" id="svg4188" preserveAspectRatio="xMidYMid" viewBox="0 0 256 272" height="2500" width="2353">
    <metadata id="metadata4200">
        <rdf:RDF>
            <cc:Work rdf:about="">
                <dc:format>image/svg+xml</dc:format>
                <dc:type rdf:resource="http://purl.org/dc/dcmitype/StillImage" />
                <dc:title></dc:title>
            </cc:Work>
        </rdf:RDF>
    </metadata>
    <defs id="defs4198" />
    <path style="fill:#f1dd3f;fill-opacity:1" id="path4190" d="M 0.1,45.522 125.91,0.697 255.1,44.725 253.8,55.128 252.49,65.531 251.18,75.934 222.69,89.195 246.19,106.94 247.26,107.14 245.95,117.55 244.64,127.95 243.34,138.35 242.03,148.76 242.08,149.64 219.23,163.17 238.11,179.97 236.8,190.37 235.49,200.77 234.18,211.18 125.91,271.14 19.325,211.97 18.123,201.57 16.922,191.16 15.72,180.76 35.168,165.53 12.297,149.42 12.116,149.55 10.914,139.15 9.7125,128.75 8.5109,118.34 7.3094,107.94 7.1278,108.08 28.551,90.807 3.7047,76.731 2.5031,66.328 1.3016,55.925 Z" />
    <path style="fill:#f9ed8b;fill-opacity:1" id="path4192" d="M 255.1,44.725 125.91,0.697 125.91,271.14 234.19,211.28 235.49,200.87 236.8,190.46 238.11,180.05 220.19,163.93 241.4,150.05 241.69,149.5 243.34,138.41 244.64,128 245.95,117.59 247.26,107.18 247.21,107.31 221.47,88.88 251.18,75.953 252.49,65.544 253.8,55.134 Z" />
    <path id="path4957" d="M 217.11,165.98 125.84,192.61 125.82,179.16 240.89,149.81 Z" style="fill:#000000;fill-opacity:0.14465;fill-rule:evenodd;stroke:none;stroke-width:0.1088px;stroke-linecap:butt;stroke-linejoin:miter;stroke-opacity:1" />
    <path id="path4959" d="M 237.71,180.37 125.33,216.39 125.77,192.47 220.22,163.91 Z" style="fill:#ffffff;fill-opacity:0.25157;fill-rule:evenodd;stroke:none;stroke-width:0.1088px;stroke-linecap:butt;stroke-linejoin:miter;stroke-opacity:1" />
    <path id="path4959-6" d="M 247.91,108.82 125.4,89.619 125.85,68.569 223.81,89.564 Z" style="fill:#ffffff;fill-opacity:0.25157;fill-rule:evenodd;stroke:none;stroke-width:0.1088px;stroke-linecap:butt;stroke-linejoin:miter;stroke-opacity:1" />
    <path id="path4957-0" d="M 222.93,89.344 125.83,68.52 125.81,48.213 250.44,75.758 Z" style="fill:#000000;fill-opacity:0.14465;fill-rule:evenodd;stroke:none;stroke-width:0.1088px;stroke-linecap:butt;stroke-linejoin:miter;stroke-opacity:1" />
    <path id="path4959-62" d="M 125.56,216.28 16.338,180.07 35.39,165.58 125.6,192.58 Z" style="fill:#ffffff;fill-opacity:0.25157;fill-rule:evenodd;stroke:none;stroke-width:0.1088px;stroke-linecap:butt;stroke-linejoin:miter;stroke-opacity:1" />
    <path id="path4957-6" d="M 125.59,192.36 34.639,165.22 12.686,149.71 125.94,179.38 Z" style="fill:#000000;fill-opacity:0.14465;fill-rule:evenodd;stroke:none;stroke-width:0.1088px;stroke-linecap:butt;stroke-linejoin:miter;stroke-opacity:1" />
    <path id="path4959-6-1" d="M 125.9,89.667 8.1087,107.45 28.593,90.72 125.88,68.552 Z" style="fill:#ffffff;fill-opacity:0.25157;fill-rule:evenodd;stroke:none;stroke-width:0.1088px;stroke-linecap:butt;stroke-linejoin:miter;stroke-opacity:1" />
    <path id="path4957-0-8" d="M 125.81,68.558 28.749,90.302 3.8256,76.871 125.48,48.607 Z" style="fill:#000000;fill-opacity:0.14465;fill-rule:evenodd;stroke:none;stroke-width:0.1088px;stroke-linecap:butt;stroke-linejoin:miter;stroke-opacity:1" />
    <flowRoot style="fill:black;stroke:none;stroke-opacity:1;stroke-width:1px;stroke-linejoin:miter;stroke-linecap:butt;fill-opacity:1;font-family:sans-serif;font-style:normal;font-weight:normal;font-size:40px;line-height:125%;letter-spacing:0px;word-spacing:0px" id="flowRoot5051" xml:space="preserve"><flowRegion id="flowRegion5053"><rect y="627.37" x="217.23" height="1483.1" width="2359.5" id="rect5055" /></flowRegion><flowPara id="flowPara5057" /></flowRoot>    <flowRoot style="fill:black;stroke:none;stroke-opacity:1;stroke-width:1px;stroke-linejoin:miter;stroke-linecap:butt;fill-opacity:1;font-family:sans-serif;font-style:normal;font-weight:normal;font-size:40px;line-height:125%;letter-spacing:0px;word-spacing:0px" id="flowRoot5061" xml:space="preserve"><flowRegion id="flowRegion5063"><rect y="380.18" x="277.15" height="1857.7" width="2269.6" id="rect5065" /></flowRegion><flowPara id="flowPara5067" /></flowRoot>    <flowRoot style="fill:black;stroke:none;stroke-opacity:1;stroke-width:1px;stroke-linejoin:miter;stroke-linecap:butt;fill-opacity:1;font-family:Ubuntu;font-style:normal;font-weight:normal;font-size:40px;line-height:125%;letter-spacing:0px;word-spacing:0px;-inkscape-font-specification:Ubuntu;font-stretch:normal;font-variant:normal;" id="flowRoot5069" xml:space="preserve"><flowRegion id="flowRegion5071"><rect style="-inkscape-font-specification:Ubuntu;font-family:Ubuntu;font-weight:normal;font-style:normal;font-stretch:normal;font-variant:normal;" y="462.57" x="329.58" height="1820.2" width="2000" id="rect5073" /></flowRegion><flowPara id="flowPara5075" /></flowRoot>    <flowRoot style="fill:black;stroke:none;stroke-opacity:1;stroke-width:1px;stroke-linejoin:miter;stroke-linecap:butt;fill-opacity:1;font-family:sans-serif;font-style:normal;font-weight:normal;font-size:40px;line-height:125%;letter-spacing:0px;word-spacing:0px" id="flowRoot5077" xml:space="preserve"><flowRegion id="flowRegion5079"><rect y="387.67" x="307.11" height="1775.3" width="1910.1" id="rect5081" /></flowRegion><flowPara id="flowPara5083" /></flowRoot>    <text id="text5085" y="244.28865" x="14.666305" style="font-style:normal;font-weight:normal;font-size:4.352px;line-height:125%;font-family:Ubuntu;letter-spacing:0px;word-spacing:0px;fill:#000000;fill-opacity:1;stroke:none;stroke-width:1px;stroke-linecap:butt;stroke-linejoin:miter;stroke-opacity:1;-inkscape-font-specification:Ubuntu;font-stretch:normal;font-variant:normal;" xml:space="preserve"><tspan y="244.28865" x="14.666305" id="tspan5087" /></text>
    <flowRoot style="fill:black;stroke:none;stroke-opacity:1;stroke-width:1px;stroke-linejoin:miter;stroke-linecap:butt;fill-opacity:1;font-family:sans-serif;font-style:normal;font-weight:normal;font-size:40px;line-height:125%;letter-spacing:0px;word-spacing:0px" id="flowRoot5129" xml:space="preserve"><flowRegion id="flowRegion5131"><rect y="1205" x="646.19" height="90.042" width="0" id="rect5133" /></flowRegion><flowPara id="flowPara5135" /></flowRoot>    <flowRoot style="fill:black;stroke:none;stroke-opacity:1;stroke-width:1px;stroke-linejoin:miter;stroke-linecap:butt;fill-opacity:1;font-family:sans-serif;font-style:normal;font-weight:normal;font-size:40px;line-height:125%;letter-spacing:0px;word-spacing:0px" id="flowRoot5142" xml:space="preserve"><flowRegion id="flowRegion5144"><rect y="493.75" x="468.75" height="1700" width="1818.8" id="rect5146" /></flowRegion><flowPara id="flowPara5148" /></flowRoot></svg>
